<?xml version="1.0" encoding="UTF-8"?>
<svg id="Layer_1" data-name="Layer 1" xmlns="http://www.w3.org/2000/svg" viewBox="0 0 1920 1920">
  <defs>
    <style>
      .cls-1 {
        fill: #fff;
      }

      .cls-2 {
        fill: #005fb8;
      }
    </style>
  </defs>
  <rect class="cls-2" width="1920" height="1920"/>
  <g>
    <path d="m863.59,280.99h281.26c50.45,0,96.11-20.45,129.17-53.5,31.21-31.21,51.17-73.66,53.31-120.75.13-2.79.19-5.6.19-8.42h-662.76c-109.8,0-198.82,89.02-198.82,198.83v1524.53c109.81,0,198.82-89.02,198.82-198.82v-365.49c0-5.62.23-11.19.7-16.69.15-1.97.35-3.93.57-5.89,11.21-99.17,95.39-176.24,197.56-176.24h323.49c25.06,0,47.74-10.16,64.16-26.58,16.42-16.42,26.58-39.11,26.58-64.16,0-50.11-40.63-90.73-90.74-90.73h-323.49c-109.81,0-198.83-89.02-198.83-198.83v-198.43c0-109.81,89.02-198.83,198.83-198.83Z"/>
    <path class="cls-1" d="m1454.06,877.08v176.24c0,100.22-81.25,181.47-181.47,181.47h-606.56c11.21-99.17,95.39-176.24,197.56-176.24h323.49c25.06,0,47.74-10.16,64.16-26.58,16.42-16.42,26.58-39.11,26.58-64.16,0-50.11-40.63-90.73-90.74-90.73h-323.49c-109.81,0-198.83-89.02-198.83-198.83v-198.43c0-109.81,89.02-198.83,198.83-198.83h281.26c50.45,0,96.11-20.45,129.17-53.5,31.21-31.21,51.17-73.66,53.31-120.75h.2v155.43c0,109.81-89.02,198.83-198.83,198.83h-191.89c-50.44,0-91.33,40.89-91.33,91.33v57.18c0,50.44,40.89,91.33,91.33,91.33h341.01c48.66,0,92.72,19.73,124.62,51.62,31.89,31.9,51.62,75.96,51.62,124.62Z"/>
  </g>
</svg>